REM MD5 cf8c8f9587d52ebd943f88925621c85d
FILE "NASCAR Heat (USA).bin" BINARY
  TRACK 01 MODE2/2352
    INDEX 01 00:00:00
  TRACK 02 AUDIO
    INDEX 00 67:27:67
    INDEX 01 67:29:67
  TRACK 03 AUDIO
    INDEX 00 67:46:37
    INDEX 01 67:48:37
  TRACK 04 AUDIO
    INDEX 00 70:04:67
    INDEX 01 70:06:67
REM LEADOUT 70:51:67
